<svg xmlns="http://www.w3.org/2000/svg" viewBox="0 0 20 20" id="icon-12">
    <path fill="#babac0" d="M12.2675 12.3319L11.0257 13.9992C8.98757 12.7317 7.26829 11.0125 6.00082 8.97434L7.66811 7.7325C7.66844 5.44611 7.29958 3.17466 6.57575 1.00586L6.51825 0.833383H1.98783C1.82772 0.832734 1.66923 0.865532 1.52252 0.929678C1.37581 0.993824 1.24412 1.0879 1.13587 1.20589C1.02762 1.32388 0.945214 1.46317 0.893918 1.61485C0.842621 1.76653 0.823568 1.92725 0.83798 2.08672C1.14622 6.51367 3.04419 10.68 6.18209 13.8179C9.31999 16.9558 13.4863 18.8538 17.9133 19.162C18.0728 19.1765 18.2335 19.1574 18.3852 19.1061C18.5368 19.0548 18.6761 18.9724 18.7941 18.8642C18.9121 18.7559 19.0062 18.6242 19.0703 18.4775C19.1345 18.3308 19.1673 18.1723 19.1666 18.0122V13.4818H18.9942C16.8286 12.7384 14.5571 12.3501 12.2675 12.3319Z"/>
</svg>